<svg width="117" height="106" xmlns="http://www.w3.org/2000/svg">
  <path d="M117 52.853c0-8.499-6.527-29.773-13.3-35.697-5.3-4.635-11.864-5.295-17.763-8.615C78.653 4.443 69.67.265 62.15.131 42.37-.222 38.685-.222 28.798 4.976c-7.827 4.115-12.56 7.65-19.387 17.752-3.545 5.245-5.882 11.315-7.138 17.82C1.677 43.637 0 50.154 0 53.446c0 13.828 3.354 13.828 7.19 21.487 3.467 6.92 9.512 14.336 15.474 19.173 10.939 8.876 20.108 7.495 31.496 8.365 6.73.514 13.561.94 20.327 2.592C91.125 110.726 117 90.398 117 52.853z" fill="#D1E8C9" fill-rule="evenodd"/>
</svg>