<svg width="19" height="18" viewBox="0 0 19 18" xmlns="http://www.w3.org/2000/svg">
  <g fill="none" fill-rule="evenodd" opacity=".5">
    <path d="M13.25397 11h-.77746l-.27556-.27c.96445-1.14 1.54508-2.62 1.54508-4.23 0-3.59-2.8638-6.5-6.39682-6.5S.95238 2.91.95238 6.5 3.8162 13 7.34921 13c1.58444 0 3.04095-.59 4.16285-1.57l.26572.28v.79l4.92063 4.99L18.16476 16l-4.9108-5zM7.3492 11c-2.45048 0-4.42858-2.01-4.42858-4.5S4.89873 2 7.34921 2c2.45047 0 4.42857 2.01 4.42857 4.5S9.79968 11 7.3492 11z" fill="#000" fill-rule="nonzero"/>
    <path d="M-2-3h23.61905v24H-2z"/>
  </g>
</svg>